<svg width="64" height="64" viewBox="0 0 64 64" fill="none" xmlns="http://www.w3.org/2000/svg">
    <rect width="64" height="64" rx="16" fill="#0f172a"></rect>

    <path d="M12 18C18 10 28 8 36 10C45 12 52 18 54 28C56 37 53 47 44 52C36 57 25 56 17 50" stroke="#38BDF8" stroke-width="4" stroke-linecap="round"></path>

    <path d="M18 24C22 19 29 17 35 19C41 21 46 26 47 33C48 39 45 45 39 49" stroke="#2563EB" stroke-width="3.5" stroke-linecap="round"></path>

    <circle cx="15" cy="47" r="4.5" fill="#38BDF8"></circle>
    <circle cx="39" cy="49" r="3.5" fill="#60A5FA"></circle>
    <circle cx="54" cy="28" r="3" fill="#38BDF8"></circle>

    <path d="M15 47L24 38L32 41L39 49" stroke="#7DD3FC" stroke-width="2.5" stroke-linecap="round"></path>
</svg>